<svg xmlns="http://www.w3.org/2000/svg" xmlns:xlink="http://www.w3.org/1999/xlink" width="876" height="530.2"><rect width="876" height="530.2" rx="5" ry="5" class="a"/><svg y="0%" x="0%"><circle cx="20" cy="20" r="6" fill="#ff5f58"/><circle cx="40" cy="20" r="6" fill="#ffbd2e"/><circle cx="60" cy="20" r="6" fill="#18c132"/></svg><svg height="434.2" viewBox="0 0 80 43.42" width="800" x="33" xmlns="http://www.w3.org/2000/svg" xmlns:xlink="http://www.w3.org/1999/xlink" y="68"><style>@keyframes i{0%{transform:translateX(0)}4.3%{transform:translateX(-80px)}8.7%{transform:translateX(-160px)}13%{transform:translateX(-240px)}13.9%{transform:translateX(-320px)}14.3%{transform:translateX(-400px)}14.8%{transform:translateX(-480px)}15.2%{transform:translateX(-560px)}15.7%{transform:translateX(-640px)}16.1%{transform:translateX(-720px)}21.7%{transform:translateX(-800px)}22.6%{transform:translateX(-880px)}27.8%{transform:translateX(-960px)}33%{transform:translateX(-1040px)}37.4%{transform:translateX(-1120px)}39.1%{transform:translateX(-1200px)}40.4%{transform:translateX(-1280px)}41.7%{transform:translateX(-1360px)}47.8%{transform:translateX(-1440px)}48.7%{transform:translateX(-1520px)}53.9%{transform:translateX(-1600px)}58.3%{transform:translateX(-1680px)}59.1%{transform:translateX(-1760px)}59.6%{transform:translateX(-1840px)}60%{transform:translateX(-1920px)}60.4%{transform:translateX(-2000px)}60.9%{transform:translateX(-2080px)}61.3%{transform:translateX(-2160px)}61.7%{transform:translateX(-2240px)}62.2%{transform:translateX(-2320px)}62.6%{transform:translateX(-2400px)}63%{transform:translateX(-2480px)}63.5%{transform:translateX(-2560px)}69.6%{transform:translateX(-2640px)}70.4%{transform:translateX(-2720px)}75.7%{transform:translateX(-2800px)}80%{transform:translateX(-2880px)}83.5%{transform:translateX(-2960px)}89.6%{transform:translateX(-3040px)}90.4%{transform:translateX(-3120px)}to{transform:translateX(-3200px)}}.a{fill:#282d35}.f,.g{fill:#a8cc8c;white-space:pre}.g{fill:#b9c0cb}</style><g font-family="Monaco,Consolas,Menlo,'Bitstream Vera Sans Mono','Powerline Symbols',monospace" font-size="1.67"><defs><symbol id="1"><text y="1.67" class="f">❯</text></symbol><symbol id="2"><text y="1.67" class="f">❯</text><text x="2.004" y="1.67" class="g">cat</text><text x="6.012" y="1.67" class="g">README.md</text></symbol><symbol id="3"><text y="1.67" class="g">#</text><text x="2.004" y="1.67" class="g">my-awesome-app</text></symbol><symbol id="4"><text y="1.67" class="g">A</text><text x="2.004" y="1.67" class="g">sample</text><text x="9.018" y="1.67" class="g">Node.js</text><text x="17.034" y="1.67" class="g">application.</text></symbol><symbol id="5"><text y="1.67" class="g">##</text><text x="3.006" y="1.67" class="g">Installation</text></symbol><symbol id="6"><text y="1.67" class="g">...</text></symbol><symbol id="7"><text y="1.67" class="f">❯</text><text x="2.004" y="1.67" class="g">npx</text><text x="6.012" y="1.67" class="g">badge-sync</text><text x="17.034" y="1.67" class="g">init</text><text x="22.044" y="1.67" class="g">README.md</text></symbol><symbol id="8"><text y="1.67" class="g">Inserted</text><text x="9.018" y="1.67" class="g">badge</text><text x="15.03" y="1.67" class="g">markers</text></symbol><symbol id="9"><text y="1.67" class="g">Applied</text><text x="8.016" y="1.67" class="g">2</text><text x="10.02" y="1.67" class="g">badges</text></symbol><symbol id="10"><text x="2.004" y="1.67" class="g">[distribution]</text><text x="17.034" y="1.67" class="g">npm</text><text x="21.042" y="1.67" class="g">version</text></symbol><symbol id="11"><text x="2.004" y="1.67" class="g">[social]</text><text x="11.022" y="1.67" class="g">GitHub</text><text x="18.036" y="1.67" class="g">stars</text></symbol><symbol id="12"><text y="1.67" class="g">&lt;!--</text><text x="5.01" y="1.67" class="g">BADGES:START</text><text x="18.036" y="1.67" class="g">--&gt;</text></symbol><symbol id="13"><text y="1.67" class="g">[![npm</text><text x="7.014" y="1.67" class="g">version](https://img.shields.io/npm/v/my-awesome-app)](...)</text></symbol><symbol id="14"><text y="1.67" class="g">[![GitHub</text><text x="10.02" y="1.67" class="g">stars](https://img.shields.io/github/stars/user/my-awesome-app)](...)</text></symbol><symbol id="15"><text y="1.67" class="g">&lt;!--</text><text x="5.01" y="1.67" class="g">BADGES:END</text><text x="16.032" y="1.67" class="g">--&gt;</text></symbol><symbol id="16"><text y="1.67" class="f">❯</text><text x="2.004" y="1.67" class="g">npx</text><text x="6.012" y="1.67" class="g">badge-sync</text><text x="17.034" y="1.67" class="g">check</text><text x="23.046" y="1.67" class="g">README.md</text></symbol><symbol id="17"><text y="1.67" class="g">Badges</text><text x="7.014" y="1.67" class="g">are</text><text x="11.022" y="1.67" class="g">in</text><text x="14.028" y="1.67" class="g">sync</text></symbol><symbol id="a"><path fill="transparent" d="M0 0h80v21H0z"/></symbol></defs><path class="a" d="M0 0h80v43.42H0z"/><g style="animation-duration:11.5s;animation-iteration-count:infinite;animation-name:i;animation-timing-function:steps(1,end)"><svg width="3280"><svg><use xlink:href="#a"/></svg><svg x="80"><use xlink:href="#a"/><use xlink:href="#1"/></svg><svg x="160"><use xlink:href="#a"/><use xlink:href="#2"/></svg><svg x="240"><use xlink:href="#a"/><use xlink:href="#2"/></svg><svg x="320"><use xlink:href="#a"/><use xlink:href="#2"/><use xlink:href="#3" y="2.171"/></svg><svg x="400"><use xlink:href="#a"/><use xlink:href="#2"/><use xlink:href="#3" y="2.171"/></svg><svg x="480"><use xlink:href="#a"/><use xlink:href="#2"/><use xlink:href="#3" y="2.171"/><use xlink:href="#4" y="6.513"/></svg><svg x="560"><use xlink:href="#a"/><use xlink:href="#2"/><use xlink:href="#3" y="2.171"/><use xlink:href="#4" y="6.513"/></svg><svg x="640"><use xlink:href="#a"/><use xlink:href="#2"/><use xlink:href="#3" y="2.171"/><use xlink:href="#4" y="6.513"/><use xlink:href="#5" y="10.855"/></svg><svg x="720"><use xlink:href="#a"/><use xlink:href="#2"/><use xlink:href="#3" y="2.171"/><use xlink:href="#4" y="6.513"/><use xlink:href="#5" y="10.855"/><use xlink:href="#6" y="13.026"/></svg><svg x="800"><use xlink:href="#a"/><use xlink:href="#2"/><use xlink:href="#3" y="2.171"/><use xlink:href="#4" y="6.513"/><use xlink:href="#5" y="10.855"/><use xlink:href="#6" y="13.026"/></svg><svg x="880"><use xlink:href="#a"/><use xlink:href="#2"/><use xlink:href="#3" y="2.171"/><use xlink:href="#4" y="6.513"/><use xlink:href="#5" y="10.855"/><use xlink:href="#6" y="13.026"/><use xlink:href="#1" y="17.368"/></svg><svg x="960"><use xlink:href="#a"/><use xlink:href="#2"/><use xlink:href="#3" y="2.171"/><use xlink:href="#4" y="6.513"/><use xlink:href="#5" y="10.855"/><use xlink:href="#6" y="13.026"/><use xlink:href="#7" y="17.368"/></svg><svg x="1040"><use xlink:href="#a"/><use xlink:href="#2"/><use xlink:href="#3" y="2.171"/><use xlink:href="#4" y="6.513"/><use xlink:href="#5" y="10.855"/><use xlink:href="#6" y="13.026"/><use xlink:href="#7" y="17.368"/></svg><svg x="1120"><use xlink:href="#a"/><use xlink:href="#2"/><use xlink:href="#3" y="2.171"/><use xlink:href="#4" y="6.513"/><use xlink:href="#5" y="10.855"/><use xlink:href="#6" y="13.026"/><use xlink:href="#7" y="17.368"/><use xlink:href="#8" y="19.539"/></svg><svg x="1200"><use xlink:href="#a"/><use xlink:href="#2"/><use xlink:href="#3" y="2.171"/><use xlink:href="#4" y="6.513"/><use xlink:href="#5" y="10.855"/><use xlink:href="#6" y="13.026"/><use xlink:href="#7" y="17.368"/><use xlink:href="#8" y="19.539"/><use xlink:href="#9" y="21.71"/></svg><svg x="1280"><use xlink:href="#a"/><use xlink:href="#2"/><use xlink:href="#3" y="2.171"/><use xlink:href="#4" y="6.513"/><use xlink:href="#5" y="10.855"/><use xlink:href="#6" y="13.026"/><use xlink:href="#7" y="17.368"/><use xlink:href="#8" y="19.539"/><use xlink:href="#9" y="21.71"/><use xlink:href="#10" y="23.881"/></svg><svg x="1360"><use xlink:href="#a"/><use xlink:href="#2"/><use xlink:href="#3" y="2.171"/><use xlink:href="#4" y="6.513"/><use xlink:href="#5" y="10.855"/><use xlink:href="#6" y="13.026"/><use xlink:href="#7" y="17.368"/><use xlink:href="#8" y="19.539"/><use xlink:href="#9" y="21.71"/><use xlink:href="#10" y="23.881"/><use xlink:href="#11" y="26.052"/></svg><svg x="1440"><use xlink:href="#a"/><use xlink:href="#2"/><use xlink:href="#3" y="2.171"/><use xlink:href="#4" y="6.513"/><use xlink:href="#5" y="10.855"/><use xlink:href="#6" y="13.026"/><use xlink:href="#7" y="17.368"/><use xlink:href="#8" y="19.539"/><use xlink:href="#9" y="21.71"/><use xlink:href="#10" y="23.881"/><use xlink:href="#11" y="26.052"/></svg><svg x="1520"><use xlink:href="#a"/><use xlink:href="#2"/><use xlink:href="#3" y="2.171"/><use xlink:href="#4" y="6.513"/><use xlink:href="#5" y="10.855"/><use xlink:href="#6" y="13.026"/><use xlink:href="#7" y="17.368"/><use xlink:href="#8" y="19.539"/><use xlink:href="#9" y="21.71"/><use xlink:href="#10" y="23.881"/><use xlink:href="#11" y="26.052"/><use xlink:href="#1" y="30.394"/></svg><svg x="1600"><use xlink:href="#a"/><use xlink:href="#2"/><use xlink:href="#3" y="2.171"/><use xlink:href="#4" y="6.513"/><use xlink:href="#5" y="10.855"/><use xlink:href="#6" y="13.026"/><use xlink:href="#7" y="17.368"/><use xlink:href="#8" y="19.539"/><use xlink:href="#9" y="21.71"/><use xlink:href="#10" y="23.881"/><use xlink:href="#11" y="26.052"/><use xlink:href="#2" y="30.394"/></svg><svg x="1680"><use xlink:href="#a"/><use xlink:href="#2"/><use xlink:href="#3" y="2.171"/><use xlink:href="#4" y="6.513"/><use xlink:href="#5" y="10.855"/><use xlink:href="#6" y="13.026"/><use xlink:href="#7" y="17.368"/><use xlink:href="#8" y="19.539"/><use xlink:href="#9" y="21.71"/><use xlink:href="#10" y="23.881"/><use xlink:href="#11" y="26.052"/><use xlink:href="#2" y="30.394"/></svg><svg x="1760"><use xlink:href="#a"/><use xlink:href="#2"/><use xlink:href="#3" y="2.171"/><use xlink:href="#4" y="6.513"/><use xlink:href="#5" y="10.855"/><use xlink:href="#6" y="13.026"/><use xlink:href="#7" y="17.368"/><use xlink:href="#8" y="19.539"/><use xlink:href="#9" y="21.71"/><use xlink:href="#10" y="23.881"/><use xlink:href="#11" y="26.052"/><use xlink:href="#2" y="30.394"/><use xlink:href="#3" y="32.565"/></svg><svg x="1840"><use xlink:href="#a"/><use xlink:href="#2"/><use xlink:href="#3" y="2.171"/><use xlink:href="#4" y="6.513"/><use xlink:href="#5" y="10.855"/><use xlink:href="#6" y="13.026"/><use xlink:href="#7" y="17.368"/><use xlink:href="#8" y="19.539"/><use xlink:href="#9" y="21.71"/><use xlink:href="#10" y="23.881"/><use xlink:href="#11" y="26.052"/><use xlink:href="#2" y="30.394"/><use xlink:href="#3" y="32.565"/></svg><svg x="1920"><use xlink:href="#a"/><use xlink:href="#2"/><use xlink:href="#3" y="2.171"/><use xlink:href="#4" y="6.513"/><use xlink:href="#5" y="10.855"/><use xlink:href="#6" y="13.026"/><use xlink:href="#7" y="17.368"/><use xlink:href="#8" y="19.539"/><use xlink:href="#9" y="21.71"/><use xlink:href="#10" y="23.881"/><use xlink:href="#11" y="26.052"/><use xlink:href="#2" y="30.394"/><use xlink:href="#3" y="32.565"/><use xlink:href="#12" y="36.907"/></svg><svg x="2000"><use xlink:href="#a"/><use xlink:href="#2"/><use xlink:href="#3" y="2.171"/><use xlink:href="#4" y="6.513"/><use xlink:href="#5" y="10.855"/><use xlink:href="#6" y="13.026"/><use xlink:href="#7" y="17.368"/><use xlink:href="#8" y="19.539"/><use xlink:href="#9" y="21.71"/><use xlink:href="#10" y="23.881"/><use xlink:href="#11" y="26.052"/><use xlink:href="#2" y="30.394"/><use xlink:href="#3" y="32.565"/><use xlink:href="#12" y="36.907"/><use xlink:href="#13" y="39.078"/></svg><svg x="2080"><use xlink:href="#a"/><use xlink:href="#2"/><use xlink:href="#3" y="2.171"/><use xlink:href="#4" y="6.513"/><use xlink:href="#5" y="10.855"/><use xlink:href="#6" y="13.026"/><use xlink:href="#7" y="17.368"/><use xlink:href="#8" y="19.539"/><use xlink:href="#9" y="21.71"/><use xlink:href="#10" y="23.881"/><use xlink:href="#11" y="26.052"/><use xlink:href="#2" y="30.394"/><use xlink:href="#3" y="32.565"/><use xlink:href="#12" y="36.907"/><use xlink:href="#13" y="39.078"/><use xlink:href="#14" y="41.249"/></svg><svg x="2160"><use xlink:href="#a"/><use xlink:href="#3"/><use xlink:href="#4" y="4.342"/><use xlink:href="#5" y="8.684"/><use xlink:href="#6" y="10.855"/><use xlink:href="#7" y="15.197"/><use xlink:href="#8" y="17.368"/><use xlink:href="#9" y="19.539"/><use xlink:href="#10" y="21.71"/><use xlink:href="#11" y="23.881"/><use xlink:href="#2" y="28.223"/><use xlink:href="#3" y="30.394"/><use xlink:href="#12" y="34.736"/><use xlink:href="#13" y="36.907"/><use xlink:href="#14" y="39.078"/><use xlink:href="#15" y="41.249"/></svg><svg x="2240"><use xlink:href="#a"/><use xlink:href="#4" y="2.171"/><use xlink:href="#5" y="6.513"/><use xlink:href="#6" y="8.684"/><use xlink:href="#7" y="13.026"/><use xlink:href="#8" y="15.197"/><use xlink:href="#9" y="17.368"/><use xlink:href="#10" y="19.539"/><use xlink:href="#11" y="21.71"/><use xlink:href="#2" y="26.052"/><use xlink:href="#3" y="28.223"/><use xlink:href="#12" y="32.565"/><use xlink:href="#13" y="34.736"/><use xlink:href="#14" y="36.907"/><use xlink:href="#15" y="39.078"/></svg><svg x="2320"><use xlink:href="#a"/><use xlink:href="#4"/><use xlink:href="#5" y="4.342"/><use xlink:href="#6" y="6.513"/><use xlink:href="#7" y="10.855"/><use xlink:href="#8" y="13.026"/><use xlink:href="#9" y="15.197"/><use xlink:href="#10" y="17.368"/><use xlink:href="#11" y="19.539"/><use xlink:href="#2" y="23.881"/><use xlink:href="#3" y="26.052"/><use xlink:href="#12" y="30.394"/><use xlink:href="#13" y="32.565"/><use xlink:href="#14" y="34.736"/><use xlink:href="#15" y="36.907"/><use xlink:href="#4" y="41.249"/></svg><svg x="2400"><use xlink:href="#a"/><use xlink:href="#5" y="2.171"/><use xlink:href="#6" y="4.342"/><use xlink:href="#7" y="8.684"/><use xlink:href="#8" y="10.855"/><use xlink:href="#9" y="13.026"/><use xlink:href="#10" y="15.197"/><use xlink:href="#11" y="17.368"/><use xlink:href="#2" y="21.71"/><use xlink:href="#3" y="23.881"/><use xlink:href="#12" y="28.223"/><use xlink:href="#13" y="30.394"/><use xlink:href="#14" y="32.565"/><use xlink:href="#15" y="34.736"/><use xlink:href="#4" y="39.078"/></svg><svg x="2480"><use xlink:href="#a"/><use xlink:href="#5"/><use xlink:href="#6" y="2.171"/><use xlink:href="#7" y="6.513"/><use xlink:href="#8" y="8.684"/><use xlink:href="#9" y="10.855"/><use xlink:href="#10" y="13.026"/><use xlink:href="#11" y="15.197"/><use xlink:href="#2" y="19.539"/><use xlink:href="#3" y="21.71"/><use xlink:href="#12" y="26.052"/><use xlink:href="#13" y="28.223"/><use xlink:href="#14" y="30.394"/><use xlink:href="#15" y="32.565"/><use xlink:href="#4" y="36.907"/><use xlink:href="#5" y="41.249"/></svg><svg x="2560"><use xlink:href="#a"/><use xlink:href="#6"/><use xlink:href="#7" y="4.342"/><use xlink:href="#8" y="6.513"/><use xlink:href="#9" y="8.684"/><use xlink:href="#10" y="10.855"/><use xlink:href="#11" y="13.026"/><use xlink:href="#2" y="17.368"/><use xlink:href="#3" y="19.539"/><use xlink:href="#12" y="23.881"/><use xlink:href="#13" y="26.052"/><use xlink:href="#14" y="28.223"/><use xlink:href="#15" y="30.394"/><use xlink:href="#4" y="34.736"/><use xlink:href="#5" y="39.078"/><use xlink:href="#6" y="41.249"/></svg><svg x="2640"><use xlink:href="#a"/><use xlink:href="#7" y="2.171"/><use xlink:href="#8" y="4.342"/><use xlink:href="#9" y="6.513"/><use xlink:href="#10" y="8.684"/><use xlink:href="#11" y="10.855"/><use xlink:href="#2" y="15.197"/><use xlink:href="#3" y="17.368"/><use xlink:href="#12" y="21.71"/><use xlink:href="#13" y="23.881"/><use xlink:href="#14" y="26.052"/><use xlink:href="#15" y="28.223"/><use xlink:href="#4" y="32.565"/><use xlink:href="#5" y="36.907"/><use xlink:href="#6" y="39.078"/></svg><svg x="2720"><use xlink:href="#a"/><use xlink:href="#7" y="2.171"/><use xlink:href="#8" y="4.342"/><use xlink:href="#9" y="6.513"/><use xlink:href="#10" y="8.684"/><use xlink:href="#11" y="10.855"/><use xlink:href="#2" y="15.197"/><use xlink:href="#3" y="17.368"/><use xlink:href="#12" y="21.71"/><use xlink:href="#13" y="23.881"/><use xlink:href="#14" y="26.052"/><use xlink:href="#15" y="28.223"/><use xlink:href="#4" y="32.565"/><use xlink:href="#5" y="36.907"/><use xlink:href="#6" y="39.078"/><use xlink:href="#1" y="43.42"/></svg><svg x="2800"><use xlink:href="#a"/><use xlink:href="#7" y="2.171"/><use xlink:href="#8" y="4.342"/><use xlink:href="#9" y="6.513"/><use xlink:href="#10" y="8.684"/><use xlink:href="#11" y="10.855"/><use xlink:href="#2" y="15.197"/><use xlink:href="#3" y="17.368"/><use xlink:href="#12" y="21.71"/><use xlink:href="#13" y="23.881"/><use xlink:href="#14" y="26.052"/><use xlink:href="#15" y="28.223"/><use xlink:href="#4" y="32.565"/><use xlink:href="#5" y="36.907"/><use xlink:href="#6" y="39.078"/><use xlink:href="#16" y="43.42"/></svg><svg x="2880"><use xlink:href="#a"/><use xlink:href="#7"/><use xlink:href="#8" y="2.171"/><use xlink:href="#9" y="4.342"/><use xlink:href="#10" y="6.513"/><use xlink:href="#11" y="8.684"/><use xlink:href="#2" y="13.026"/><use xlink:href="#3" y="15.197"/><use xlink:href="#12" y="19.539"/><use xlink:href="#13" y="21.71"/><use xlink:href="#14" y="23.881"/><use xlink:href="#15" y="26.052"/><use xlink:href="#4" y="30.394"/><use xlink:href="#5" y="34.736"/><use xlink:href="#6" y="36.907"/><use xlink:href="#16" y="41.249"/></svg><svg x="2960"><use xlink:href="#a"/><use xlink:href="#8"/><use xlink:href="#9" y="2.171"/><use xlink:href="#10" y="4.342"/><use xlink:href="#11" y="6.513"/><use xlink:href="#2" y="10.855"/><use xlink:href="#3" y="13.026"/><use xlink:href="#12" y="17.368"/><use xlink:href="#13" y="19.539"/><use xlink:href="#14" y="21.71"/><use xlink:href="#15" y="23.881"/><use xlink:href="#4" y="28.223"/><use xlink:href="#5" y="32.565"/><use xlink:href="#6" y="34.736"/><use xlink:href="#16" y="39.078"/><use xlink:href="#17" y="41.249"/></svg><svg x="3040"><use xlink:href="#a"/><use xlink:href="#9"/><use xlink:href="#10" y="2.171"/><use xlink:href="#11" y="4.342"/><use xlink:href="#2" y="8.684"/><use xlink:href="#3" y="10.855"/><use xlink:href="#12" y="15.197"/><use xlink:href="#13" y="17.368"/><use xlink:href="#14" y="19.539"/><use xlink:href="#15" y="21.71"/><use xlink:href="#4" y="26.052"/><use xlink:href="#5" y="30.394"/><use xlink:href="#6" y="32.565"/><use xlink:href="#16" y="36.907"/><use xlink:href="#17" y="39.078"/></svg><svg x="3120"><use xlink:href="#a"/><use xlink:href="#9"/><use xlink:href="#10" y="2.171"/><use xlink:href="#11" y="4.342"/><use xlink:href="#2" y="8.684"/><use xlink:href="#3" y="10.855"/><use xlink:href="#12" y="15.197"/><use xlink:href="#13" y="17.368"/><use xlink:href="#14" y="19.539"/><use xlink:href="#15" y="21.71"/><use xlink:href="#4" y="26.052"/><use xlink:href="#5" y="30.394"/><use xlink:href="#6" y="32.565"/><use xlink:href="#16" y="36.907"/><use xlink:href="#17" y="39.078"/><use xlink:href="#1" y="43.42"/></svg><svg x="3200"><use xlink:href="#a"/><use xlink:href="#10"/><use xlink:href="#11" y="2.171"/><use xlink:href="#2" y="6.513"/><use xlink:href="#3" y="8.684"/><use xlink:href="#12" y="13.026"/><use xlink:href="#13" y="15.197"/><use xlink:href="#14" y="17.368"/><use xlink:href="#15" y="19.539"/><use xlink:href="#4" y="23.881"/><use xlink:href="#5" y="28.223"/><use xlink:href="#6" y="30.394"/><use xlink:href="#16" y="34.736"/><use xlink:href="#17" y="36.907"/><use xlink:href="#1" y="41.249"/></svg></svg></g></g></svg></svg>